<svg width="20" height="20" viewBox="0 0 115 116" fill="none" xmlns="http://www.w3.org/2000/svg">
<path d="M109.773 21.0909H83.6364V5.27273C83.6364 3.87431 83.0856 2.53317 82.1053 1.54435C81.125 0.555518 79.7954 0 78.4091 0H36.5909C35.2045 0 33.875 0.555518 32.8947 1.54435C31.9144 2.53317 31.3636 3.87431 31.3636 5.27273V21.0909H5.22727C3.84091 21.0909 2.51134 21.6464 1.53103 22.6353C0.550729 23.6241 0 24.9652 0 26.3636C0 27.7621 0.550729 29.1032 1.53103 30.092C2.51134 31.0808 3.84091 31.6364 5.22727 31.6364H11.0661L20.9509 111.381C21.1089 112.656 21.723 113.829 22.6778 114.68C23.6326 115.53 24.8625 116 26.1364 116H88.8636C90.1375 116 91.3674 115.53 92.3222 114.68C93.277 113.829 93.8911 112.656 94.0491 111.381L103.934 31.6364H109.773C111.159 31.6364 112.489 31.0808 113.469 30.092C114.449 29.1032 115 27.7621 115 26.3636C115 24.9652 114.449 23.6241 113.469 22.6353C112.489 21.6464 111.159 21.0909 109.773 21.0909ZM41.8182 10.5455H73.1818V21.0909H41.8182V10.5455ZM84.248 105.455H30.752L21.6043 31.6364H93.3957L84.248 105.455Z" fill="#3C1414"/>
</svg>
