<svg width="115" height="116" viewBox="0 0 115 116" fill="none" xmlns="http://www.w3.org/2000/svg">
<path fill-rule="evenodd" clip-rule="evenodd" d="M104.233 4.65463C98.0802 -1.55153 88.1048 -1.55155 81.9519 4.65463L7.60144 79.6518C5.40205 81.8703 3.90287 84.6959 3.29289 87.772L0.209806 103.322C-1.26007 110.735 5.21961 117.271 12.569 115.788L27.9843 112.678C31.0343 112.063 33.8356 110.551 36.035 108.332L110.385 33.3353C116.538 27.1292 116.538 17.067 110.385 10.8608L104.233 4.65463ZM89.3788 12.1461C91.4301 10.0774 94.7549 10.0774 96.8062 12.1461L102.958 18.3523C105.01 20.421 105.01 23.7751 102.958 25.8438L88.9282 39.996L75.349 26.2983L89.3788 12.1461ZM67.9216 33.7899L15.0284 87.1432C14.2952 87.8827 13.7955 88.8246 13.5922 89.8501L10.5091 105.399L25.9245 102.289C26.9412 102.084 27.8749 101.58 28.608 100.841L81.5013 47.4875L67.9216 33.7899Z" fill="#3C1414"/>
</svg>
