<svg width="40" height="40" viewBox="0 0 72 72" fill="none" xmlns="http://www.w3.org/2000/svg">
<g clip-path="url(#clip0_420_347)">
<path fill-rule="evenodd" clip-rule="evenodd" d="M36 67.5C18.603 67.5 4.5 53.3925 4.5 36C4.5 18.6075 18.603 4.5 36 4.5C53.397 4.5 67.5 18.6075 67.5 36C67.5 53.3925 53.397 67.5 36 67.5ZM36 0C16.1168 0 0 16.11 0 36C0 55.89 16.1168 72 36 72C55.8832 72 72 55.89 72 36C72 16.11 55.8832 0 36 0ZM49.5 33.75H38.25V22.5C38.25 21.2625 37.2442 20.25 36 20.25C34.7558 20.25 33.75 21.2625 33.75 22.5V33.75H22.5C21.2558 33.75 20.25 34.7625 20.25 36C20.25 37.2375 21.2558 38.25 22.5 38.25H33.75V49.5C33.75 50.7375 34.7558 51.75 36 51.75C37.2442 51.75 38.25 50.7375 38.25 49.5V38.25H49.5C50.7442 38.25 51.75 37.2375 51.75 36C51.75 34.7625 50.7442 33.75 49.5 33.75Z" fill="#3C1414"/>
</g>
<defs>
<clipPath id="clip0_420_347">
<rect width="72" height="72" fill="white"/>
</clipPath>
</defs>
</svg>
